<?xml version="1.0" encoding="UTF-8"?>
<svg id="Layer_1" xmlns="http://www.w3.org/2000/svg" version="1.1" viewBox="0 0 579.39 332.05">
  <!-- Generator: Adobe Illustrator 29.3.1, SVG Export Plug-In . SVG Version: 2.1.0 Build 151)  -->
  <defs>
    <style>
      .st0 {
        fill: #6cc8c3;
      }

      .st1 {
        fill: #606161;
      }

      .st2 {
        fill: #353535;
      }
    </style>
  </defs>
  <g>
    <g>
      <path class="st2" d="M43.41,86.84h20.49v81.75c0,23.12,12.78,37.93,36.51,37.93s36.31-14.81,36.31-37.93v-81.75h20.49v82.16c0,33.68-18.87,55.58-56.8,55.58s-57-22.11-57-55.38v-82.36Z"/>
      <path class="st2" d="M273.23,222.15l-40.57-55.18-40.57,55.18h-24.55l51.93-69.38-48.89-65.93h24.54l37.53,51.93,37.33-51.93h24.55l-48.49,65.73,51.53,69.58h-24.34Z"/>
    </g>
    <g>
      <polygon class="st0" points="272.02 170.96 334.07 86.84 323.56 86.84 266.75 163.84 272.02 170.96"/>
      <polygon class="st0" points="242.36 196.91 223.7 222.21 234.21 222.21 247.61 204.05 242.36 196.91"/>
    </g>
  </g>
  <g>
    <path class="st2" d="M512.76,217.51V86.72h-49.14v4.22h23.21v126.57h-22.42c-3.05,0-5.55-.06-8.16-.06h-6.93c-3.42,0-6.03-2.4-7.84-4.42-1.81-2-2.71-5.92-2.71-11.76v-75.07c0-5.43-.81-10.6-2.41-15.52-1.61-4.92-4.32-9.35-8.14-13.27-3.82-3.92-8.85-7.03-15.07-9.35-6.23-2.31-13.97-3.47-23.22-3.47-7.64,0-14.42.91-20.35,2.71-5.93,1.81-10.85,4.27-14.77,7.39-3.92,3.12-6.89,6.68-8.89,10.7-2.01,4.02-3.01,8.25-3.01,12.66,0,3.82.8,6.93,2.41,9.35,1.61,2.41,5.73,3.62,12.36,3.62,3.81,0,6.73-.95,8.74-2.86,2.01-1.91,3.01-4.27,3.01-7.08,0-1.61-.3-4.07-.9-7.39-.6-3.32-.91-6.68-.91-10.1,0-5.23,2.16-8.99,6.48-11.31,4.32-2.31,9.8-3.46,16.43-3.46,5.02,0,9.05.71,12.06,2.11,3.02,1.41,5.32,3.46,6.94,6.18,1.6,2.72,2.71,5.98,3.31,9.8.6,3.82.91,8.14.91,12.96,0,6.03-.45,10.8-1.36,14.32-.9,3.52-2.56,6.44-4.97,8.74-2.41,2.31-5.78,4.27-10.1,5.88-4.33,1.61-9.8,3.52-16.43,5.73-5.63,1.81-11.21,3.52-16.73,5.13-5.53,1.61-10.55,3.67-15.08,6.18-4.52,2.52-8.19,5.88-11,10.1-2.82,4.22-4.22,9.85-4.22,16.88,0,3.01.45,6.28,1.36,9.8.9,3.52,2.76,6.69,5.58,9.5,2.81,2.82,6.73,5.18,11.76,7.09,5.02,1.9,11.76,2.86,20.2,2.86,7.43,0,13.57-.85,18.39-2.56,4.82-1.7,8.69-3.81,11.61-6.33,2.91-2.51,5.07-5.12,6.48-7.84,1.4-2.71,2.51-4.97,3.32-6.78h.6c1.61,7.44,4.57,13.22,8.89,17.34,4.32,4.12,11.3,6.18,20.95,6.18,5.22,0,7.84-.34,13.53-.34,3.92,0,5.73-.01,7.7-.01h71.75v-4.22h-23.22ZM412.85,174.14c0,4.02-.35,8.49-1.05,13.42-.71,4.93-2.11,9.49-4.22,13.71-2.11,4.23-5.23,7.74-9.35,10.56-4.12,2.81-9.5,4.22-16.13,4.22-4.63,0-8.39-.8-11.31-2.41-2.92-1.61-5.18-3.66-6.78-6.18-1.61-2.51-2.71-5.37-3.32-8.59-.6-3.21-.9-6.33-.9-9.35,0-7.03,1.7-12.91,5.12-17.64,3.42-4.72,8.34-8.39,14.77-11l22.61-9.05c6.23-2.61,9.54-5.22,9.95-7.84h.6v30.15Z"/>
    <path class="st0" d="M483.45,51.53c0-4.45,1.56-8.24,4.7-11.39,3.14-3.14,6.93-4.71,11.39-4.71s8.25,1.57,11.39,4.71c3.14,3.14,4.7,6.94,4.7,11.39s-1.57,8.25-4.7,11.39c-3.14,3.14-6.94,4.71-11.39,4.71s-8.25-1.57-11.39-4.71c-3.14-3.14-4.7-6.93-4.7-11.39Z"/>
  </g>
  <g>
    <path class="st1" d="M43.41,278.9c0-10.52,7.75-17.71,17.45-17.71,6.21,0,10.42,2.93,13.14,6.78l-3.59,2c-1.95-2.87-5.49-4.98-9.55-4.98-7.34,0-13.04,5.75-13.04,13.91s5.7,13.91,13.04,13.91c4.05,0,7.6-2.05,9.55-4.98l3.64,2c-2.87,3.9-6.98,6.78-13.19,6.78-9.7,0-17.45-7.19-17.45-17.71Z"/>
    <path class="st1" d="M111.03,261.19c10.11,0,16.99,7.6,16.99,17.71s-6.88,17.71-16.99,17.71-16.99-7.6-16.99-17.71,6.83-17.71,16.99-17.71ZM111.03,264.99c-7.7,0-12.57,5.9-12.57,13.91s4.88,13.91,12.57,13.91,12.57-5.95,12.57-13.91-4.93-13.91-12.57-13.91Z"/>
    <path class="st1" d="M166.24,261.19c10.11,0,16.99,7.6,16.99,17.71s-6.88,17.71-16.99,17.71-16.99-7.6-16.99-17.71,6.83-17.71,16.99-17.71ZM166.24,264.99c-7.7,0-12.57,5.9-12.57,13.91s4.88,13.91,12.57,13.91,12.57-5.95,12.57-13.91-4.93-13.91-12.57-13.91Z"/>
    <path class="st1" d="M205.84,295.99v-34.23h13.75c6.88,0,10.73,4.72,10.73,10.32s-3.95,10.31-10.73,10.31h-9.49v13.6h-4.26ZM219.08,265.56h-8.98v13.04h8.98c4.06,0,6.83-2.67,6.83-6.52s-2.77-6.52-6.83-6.52Z"/>
    <path class="st1" d="M251.9,295.99v-34.23h22.43v3.8h-18.17v11.03h17.81v3.8h-17.81v11.81h18.17v3.8h-22.43Z"/>
    <path class="st1" d="M316.86,295.99l-8.73-13.6h-6.83v13.6h-4.26v-34.23h13.75c6.26,0,10.73,4,10.73,10.32s-4.21,9.55-8.88,9.96l9.24,13.96h-5.03ZM310.29,265.56h-8.98v13.09h8.98c4.05,0,6.82-2.72,6.82-6.57s-2.77-6.52-6.82-6.52Z"/>
    <path class="st1" d="M368.77,295.99l-3.03-7.6h-17.34l-3.03,7.6h-4.72l13.76-34.23h5.29l13.81,34.23h-4.72ZM357.07,265.56l-7.44,19.04h14.83l-7.39-19.04Z"/>
    <path class="st1" d="M398.93,295.99v-30.43h-10.83v-3.8h25.97v3.8h-10.88v30.43h-4.26Z"/>
    <path class="st1" d="M435.65,295.99v-34.23h4.26v34.23h-4.26Z"/>
    <path class="st1" d="M474.05,295.99l-13.76-34.23h4.88l11.55,29.56,11.55-29.56h4.88l-13.81,34.23h-5.29Z"/>
    <path class="st1" d="M513.55,295.99v-34.23h22.43v3.8h-18.17v11.03h17.81v3.8h-17.81v11.81h18.17v3.8h-22.43Z"/>
  </g>
</svg>